# xmcd
#
# Track frame offsets:
#	150
#	16775
#	37057
#	56417
#	69220
#	85382
#	106395
#	119008
#	128309
#	141810
#	158106
#	175787
#	195588
#	208564
#	224203
#	234316
#	252817
#	267893
#	282355
#	313583
#
# Disc length: 4424 seconds
#
# Revision: 0
# Processed by: cddbd v1.4PL0 Copyright (c) Steve Scherf et al.
# Submitted via: EasyCDDAExtractor 4.6.0.1
#
DISCID=1c114614
DTITLE=Reverend Gary Davis - Twelve Gates To The City
DYEAR=1900
DGENRE=Blues
TTITLE0=I'm Going To Sit Down On The Banks Of The River
TTITLE1=Twelve Gates To The City
TTITLE2=I Heard The Angels Sing
TTITLE3=Twelve Sticks
TTITLE4=It's A Long Wat To Tipperary
TTITLE5=When The Train Comes Along
TTITLE6=Little Boy, Little Boy Who Made Your Britches
TTITLE7=All Night Long
TTITLE8=Who Shall Deliver Poor Me
TTITLE9=Jesus Met The Woman At The Well
TTITLE10=Lord, Search My Heart
TTITLE11=Lord, On Your Word
TTITLE12=Let Us Get Together
TTITLE13=Cocaine Blues
TTITLE14=Devil's Dream
TTITLE15=Blow Gabriel
TTITLE16=Sun Is Going Down
TTITLE17=Spoonful
TTITLE18=Whistlin' Blues
TTITLE19=Virgin Mary
EXTD=
EXTT0=
EXTT1=
EXTT2=
EXTT3=
EXTT4=
EXTT5=
EXTT6=
EXTT7=
EXTT8=
EXTT9=
EXTT10=
EXTT11=
EXTT12=
EXTT13=
EXTT14=
EXTT15=
EXTT16=
EXTT17=
EXTT18=
EXTT19=
PLAYORDER=
